<svg xmlns="http://www.w3.org/2000/svg" viewBox="0 0 93.54 93.54"><defs><style>.cls-1{fill:#3f3f3f;}.cls-2{fill:#fff;}</style></defs><title>Type Planeswalker</title><g id="Layer_2" data-name="Layer 2"><g id="Type"><g id="Type_Planeswalker" data-name="Type Planeswalker"><circle class="cls-1" cx="46.77" cy="46.77" r="46.77"/><path class="cls-2" d="M66.46,22.61a.23.23,0,0,0-.45,0c-.66,5.59-2.56,19.78-4.87,19s-3.62-17.64-4.21-26a.23.23,0,0,0-.45,0c-.35,8-1.5,23.57-5,23.57-2.48,0-4-22.4-4.55-31.71a.23.23,0,0,0-.45,0c-.6,9.3-2.25,31.69-4.32,31.69s-4.21-18.16-4.95-25.25a.23.23,0,0,0-.45,0c-.48,7.33-1.95,26.63-4.27,27.63S28.28,27.67,27.65,22a.22.22,0,0,0-.44,0L24.83,45.35c12.45,3.72,21.85,20.47,21.85,40.58,0-20.11,9.4-36.86,21.85-40.58Z"/></g></g></g></svg>