<svg xmlns="http://www.w3.org/2000/svg" viewBox="0 0 93.54 93.54"><defs><style>.cls-1{fill:#3f3f3f;}.cls-2{fill:#fafafa;}</style></defs><title>Type Instant</title><g id="Layer_2" data-name="Layer 2"><g id="Type"><g id="Type_Instant" data-name="Type Instant"><circle class="cls-1" cx="46.77" cy="46.77" r="46.77"/><path class="cls-2" d="M43,76.9c1.51-2.46,7.52-12.22,11.26-18.34,1.53-2.92,3.5-5.48-3-4.44-8.44,1.33-16.86,2.78-25.31,4.08-1.84.28-8,2-3.88-5.42s7-12.53,10.46-18.84c.64-1.17,2.58-3,.37-3.91-4.54-1.75-2.2-4.07-.87-6.22,8-13,5.16-10.78,19-10.94,4.48,0,9,0,13.43,0,1.54,0,3.33-.3,4.13,1.4.88,1.85-.87,2.78-1.87,3.83C59.12,26,51.53,33.79,44,41.65c-4,4.67-3.72,5.71,2.18,4.51,3.78-.65,7.35-1.69,11-2.28,1.78-.29,5.73-.7,4.48,1.08-6,8.61,10.67,1.64,7.4,5.5L43.86,77.86C41.66,80.25,41.48,79.35,43,76.9Z"/></g></g></g></svg>