<svg xmlns="http://www.w3.org/2000/svg" viewBox="0 0 93.54 93.54"><defs><style>.cls-1{fill:#3f3f3f;}.cls-2{fill:#fff;}</style></defs><title>Type Creature</title><g id="Layer_2" data-name="Layer 2"><g id="Type"><g id="Type_Creature" data-name="Type Creature"><circle class="cls-1" cx="46.77" cy="46.77" r="46.77"/><path class="cls-2" d="M79.24,23.68c-3.88.37-7.08,1.75-10.36,2.86C53.48,31.75,40.54,40.81,28.8,51.82c-1,.92-2.21,3.14-3.64,1.67-1.11-1.15-2.47-3.2-1.28-5.29a26.61,26.61,0,0,1,2.6-3.86A92.85,92.85,0,0,1,59.8,18.66c1.49-.67,3.51-.71,4.14-2.75-1.08-1-2.08-.34-3.18-.06C50.5,18.42,41.22,23.48,32,28.15c-8.7,4.39-15,12.18-20.12,20.6-1.06,1.76-2.56,4.47.28,5.48C18.61,56.54,20,60.89,18.56,67A2.85,2.85,0,0,0,20,70.48c1.56.74,2.57-.34,3.53-1.29s2-2.36,3.17-3.42C42.07,51.56,56,35.62,75.75,26.93,77.06,26.36,79,26,79.24,23.68ZM78.93,41.5C62.8,46.86,48.69,55.91,35.45,66.39c-2.52,2-4.11,5.68-.36,8.5s5.29-1,6.83-3A82.36,82.36,0,0,1,65.44,51.26C70.2,48.43,75,45.57,79.7,42.73Z"/></g></g></g></svg>