<svg xmlns="http://www.w3.org/2000/svg" viewBox="0 0 93.54 93.54"><defs><style>.cls-1{fill:#3f3f3f;}.cls-2{fill:#fff;}</style></defs><title>Type Land</title><g id="Layer_2" data-name="Layer 2"><g id="Type"><g id="Type_Land" data-name="Type Land"><circle class="cls-1" cx="46.77" cy="46.77" r="46.77"/><path class="cls-2" d="M46.56,69.43c-4.49,0-17.24-1.48-25.3-4.93C17.67,63,15,60.5,18.9,56.84c7.77-7.27,11.51-16.56,14.2-26.48a13.8,13.8,0,0,1,1.3-3.19c.81-1.47,1.38-3.63,3.35-3.52s2.61,2.07,3.31,3.64c2.27,5.07,4.29,10.25,7.65,14.77,2.6,3.5,4.59,3.9,7.22-.2,3.39-5.28,6.53-5,8.79.69s5,10.67,9.72,14.64c4.16,3.46,1.1,5.75-2,7.16C64.2,68,51.05,69.43,46.56,69.43Z"/></g></g></g></svg>