<svg xmlns="http://www.w3.org/2000/svg" viewBox="0 0 93.54 93.54"><defs><style>.cls-1{fill:#3f3f3f;}.cls-2{fill:#fff;}</style></defs><title>Type Enchantment</title><g id="Layer_2" data-name="Layer 2"><g id="Type"><g id="Type_Enchantment" data-name="Type Enchantment"><circle class="cls-1" cx="46.77" cy="46.77" r="46.77"/><path class="cls-2" d="M80.17,64.89,62.59,61.42a1,1,0,0,1-.48-1.8L78.65,45.17l-17.27,5.9a1,1,0,0,1-1.32-1.32l7.3-21.37L52.59,45.28a1,1,0,0,1-1.81-.54l-4.07-30-4.07,30a1,1,0,0,1-1.82.55L26.06,28.38l7.3,21.37A1,1,0,0,1,32,51.07l-17.27-5.9L31.31,59.62a1,1,0,0,1-.48,1.8L13.25,64.89,34.8,69.13v-6a12,12,0,0,1,1.25-5.31l.81-1.39a11.91,11.91,0,0,1,19.77.12l.69,1.18a11.92,11.92,0,0,1,1.3,5.4v6Z"/></g></g></g></svg>