<svg xmlns="http://www.w3.org/2000/svg" viewBox="0 0 93.54 93.54"><defs><style>.cls-1{fill:#3f3f3f;}.cls-2{fill:#fff;}</style></defs><title>Type Sorcery</title><g id="Layer_2" data-name="Layer 2"><g id="Type"><g id="Type_Sorcery" data-name="Type Sorcery"><circle class="cls-1" cx="46.77" cy="46.77" r="46.77"/><path class="cls-2" d="M30.62,47.2c-4.43,7.63-2.16,12.72,6,14.4a23.19,23.19,0,0,0,6.39.34c6.28-.49,11,1.83,13.77,7.78,3.66-6.06.07-12-7.62-13.84-3.57-.84-8,.13-10.3-4.83,2.13-1,5.87-.28,5.58-4.19-.26-3.37-2.5-5.15-5.29-6.36-2-.84-4.07-1.34-6-2.16-5.92-2.44-8.93-8.15-7.86-14.71A13.34,13.34,0,0,1,37.56,12.92a5.66,5.66,0,0,1,5,2.07c-.4.55-.57,1-.8,1.07-3.46.4-7.37.17-8.27,4.74s2.1,7.19,5.85,9A35.75,35.75,0,0,1,49.11,37c2.37,2.33,5.32,4.19,7.86.54,2.22-3.19.32-6-2.39-8C53,28.38,51,27.7,48.21,26.33c4.53-1.33,7.45,0,10.27,1.56C72.05,35.56,77,54.05,69.12,67.51c-4.1,7-10.53,10.06-18.31,10.81-1.36.13-3,.14-3.44-1.46s1.11-1.64,2.16-2.13c3.38-1.57,1.68-2.7-.43-3.7-3.16-1.5-6.09-.13-9.05.75C34,73.58,29.27,71,25.56,66.68s-5.17-9.1-2.28-14.52C24.71,49.47,26.58,47.42,30.62,47.2Z"/></g></g></g></svg>