<svg xmlns="http://www.w3.org/2000/svg" viewBox="0 0 93.54 93.54"><defs><style>.cls-1{fill:#3f3f3f;}.cls-2{fill:#fff;}</style></defs><title>Type Artifact</title><g id="Layer_2" data-name="Layer 2"><g id="Type"><g id="Type_Artifact" data-name="Type Artifact"><circle class="cls-1" cx="46.77" cy="46.77" r="46.77"/><path class="cls-2" d="M55.36,53.46c3.7-1.18,5.35-4.74,6.83-8.27,1.65-3.93,1.44-8.84,4.55-11.82,3.52-3.38.41-5.32-.48-8-1-2.85,1.42-6.21-1.08-8.93-1.17-1.28-2.78-1.24-4.34-1.24H33c-1.57,0-3.18,0-4.34,1.24-2.5,2.72-.13,6.08-1.09,8.93-.88,2.66-4,4.6-.48,8,3.11,3,2.9,7.89,4.55,11.82,1.48,3.53,3.13,7.09,6.83,8.27,6.73,2.16,5.05,7.16,4.82,11.88s-3,7.15-7.26,8.72c-2.08.78-6.33-.87-5.9,2.61.32,2.6,4.32,1.62,6.75,1.65,3.22,0,6.44,0,9.66,0h.75c3.21,0,6.43,0,9.65,0,2.43,0,6.43,1,6.75-1.65.43-3.48-3.82-1.83-5.9-2.61-4.25-1.57-7-3.93-7.26-8.72S48.63,55.62,55.36,53.46Z"/></g></g></g></svg>